<?xml version="1.0" standalone="no"?>
<!DOCTYPE svg PUBLIC "-//W3C//DTD SVG 20010904//EN"
 "http://www.w3.org/TR/2001/REC-SVG-20010904/DTD/svg10.dtd">
<svg version="1.0" xmlns="http://www.w3.org/2000/svg"
 width="219.000000pt" height="219.000000pt" viewBox="0 0 219.000000 219.000000"
 preserveAspectRatio="xMidYMid meet">
<metadata>
Created by potrace 1.11, written by Peter Selinger 2001-2013
</metadata>
<g transform="translate(0.000000,219.000000) scale(0.100000,-0.100000)"
fill="#000000" stroke="none">
<path d="M2034 2084 c-159 -41 -284 -140 -380 -302 -62 -104 -75 -141 -224
-642 -88 -298 -129 -433 -134 -437 -2 -2 -8 9 -14 24 -54 155 -317 889 -339
951 -11 27 -23 8 -53 -85 -17 -54 -85 -264 -151 -468 -67 -203 -128 -392 -137
-420 -8 -27 -17 -45 -19 -40 -1 6 -63 205 -138 444 -74 239 -135 446 -135 461
0 34 34 70 65 70 14 0 25 5 25 10 0 6 -73 10 -200 10 -127 0 -200 -4 -200 -10
0 -5 12 -10 26 -10 39 0 92 -29 118 -64 12 -17 44 -92 71 -166 26 -74 65 -184
87 -244 21 -60 50 -141 63 -180 13 -39 57 -164 98 -279 l74 -207 -39 -77 c-94
-188 -221 -293 -355 -298 -64 -2 -78 -11 -29 -21 113 -21 253 30 346 126 104
106 127 162 310 740 34 107 77 242 96 299 19 57 34 111 34 120 0 32 19 -9 72
-159 210 -586 261 -727 269 -745 5 -11 15 -38 22 -60 8 -22 18 -40 23 -40 4 0
14 32 20 70 7 39 23 104 37 145 47 144 319 926 353 1017 101 269 260 435 443
459 28 4 51 11 51 16 0 12 -96 8 -156 -8z"/>
</g>
</svg>
