<?xml version="1.0" encoding="UTF-8" standalone="no"?>
<!-- Created with Inkscape (http://www.inkscape.org/) -->

<svg
   xmlns:dc="http://purl.org/dc/elements/1.1/"
   xmlns:cc="http://creativecommons.org/ns#"
   xmlns:rdf="http://www.w3.org/1999/02/22-rdf-syntax-ns#"
   xmlns:svg="http://www.w3.org/2000/svg"
   xmlns="http://www.w3.org/2000/svg"
   xmlns:sodipodi="http://sodipodi.sourceforge.net/DTD/sodipodi-0.dtd"
   xmlns:inkscape="http://www.inkscape.org/namespaces/inkscape"
   width="142.93135mm"
   height="56.48275mm"
   viewBox="0 0 506.44967 200.13573"
   id="svg2"
   version="1.1"
   inkscape:version="0.91 r13725"
   sodipodi:docname="logo.svg">
  <defs
     id="defs4" />
  <sodipodi:namedview
     id="base"
     pagecolor="#ffffff"
     bordercolor="#666666"
     borderopacity="1.0"
     inkscape:pageopacity="0.0"
     inkscape:pageshadow="2"
     inkscape:zoom="0.98994949"
     inkscape:cx="494.85819"
     inkscape:cy="7.1684835"
     inkscape:document-units="px"
     inkscape:current-layer="layer1"
     showgrid="false"
     fit-margin-top="0"
     fit-margin-left="0"
     fit-margin-right="0"
     fit-margin-bottom="0"
     inkscape:window-width="1920"
     inkscape:window-height="1027"
     inkscape:window-x="1432"
     inkscape:window-y="-8"
     inkscape:window-maximized="1" />
  <metadata
     id="metadata7">
    <rdf:RDF>
      <cc:Work
         rdf:about="">
        <dc:format>image/svg+xml</dc:format>
        <dc:type
           rdf:resource="http://purl.org/dc/dcmitype/StillImage" />
        <dc:title></dc:title>
      </cc:Work>
    </rdf:RDF>
  </metadata>
  <g
     inkscape:label="Layer 1"
     inkscape:groupmode="layer"
     id="layer1"
     transform="translate(1293.2286,-208.119)">
    <g
       style="font-style:normal;font-weight:normal;font-size:180px;line-height:125%;font-family:sans-serif;letter-spacing:0px;word-spacing:0px;fill:#ffffff;fill-opacity:1;stroke:none;stroke-width:1px;stroke-linecap:butt;stroke-linejoin:miter;stroke-opacity:1"
       id="text4136"
       inkscape:export-xdpi="15.739319"
       inkscape:export-ydpi="15.739319">
      <path
         d="m -1163.9886,349.27648 -35.46,-99.9 -1.8,0 -33.48,103.32 -27.18,-87.66 c -2.16,-7.02 2.34,-11.16 7.02,-11.16 l 1.62,0 0,-1.8 -39.96,0 0,1.8 1.44,0 c 5.4,0 12.78,3.24 15.66,10.98 l 36.36,102.96 c -7.92,21.42 -25.02,41.58 -45,37.62 l -0.36,1.8 c 26.1,5.76 45.54,-13.68 53.64,-39.06 l 28.98,-90.54 36.9,102.6 1.62,0 c 0.18,-8.46 3.96,-19.98 3.96,-19.98 l 34.56,-100.26 c 6.66,-19.08 20.88,-48.78 50.76,-50.04 l 0,-1.8 c -36.9,-1.26 -55.8,29.52 -62.46,51.84 l -26.82,89.28 z"
         style="font-style:normal;font-variant:normal;font-weight:normal;font-stretch:normal;font-family:'Cinzel Decorative';-inkscape-font-specification:'Cinzel Decorative';fill:#ffffff;fill-opacity:1"
         id="path4143" />
      <path
         d="m -1004.3061,310.75648 0,-1.8 -36,0 0,1.8 2.88,0 c 5.58,0 9.18,3.24 11.52,8.1 5.04,10.08 4.68,22.68 0,33.48 -15.3,-12.6 -25.2,-21.96 -32.76,-28.62 -18.54,-16.74 -28.44,-28.08 -28.44,-43.2 0,-14.76 9.9,-25.56 23.76,-25.56 15.3,0 25.56,10.62 25.56,27.9 l 1.8,0 3.06,-20.52 c -6.3,-7.74 -18.54,-12.6 -30.42,-12.78 -22.14,0 -36.18,13.32 -36.18,30.96 0,9.18 2.34,16.74 6.66,23.94 -12.42,6.48 -21.78,16.92 -21.78,33.3 0,26.82 19.98,42.3 55.26,42.3 14.04,0 25.2,-4.86 33.12,-12.6 15.3,12.06 31.86001,10.8 38.88001,10.8 l 0,-1.8 c -11.52,-0.9 -21.96001,-9.9 -31.68001,-18.36 6.3,-10.62 8.28,-24.48 5.4,-39.24 -0.9,-4.86 1.44,-8.1 6.66,-8.1 l 2.7,0 z m -55.08,63.72 c -26.82,0 -42.12,-14.94 -42.12,-36.72 0,-10.98 3.42,-21.24 11.7,-28.8 5.4,7.38 13.14,14.76 22.86,23.58 9.54,8.64 19.44,17.46 34.56,29.88 -6.3,7.2 -15.48,12.06 -27,12.06 l 0,0 z"
         style="font-style:normal;font-variant:normal;font-weight:normal;font-stretch:normal;font-family:Cinzel;-inkscape-font-specification:Cinzel;fill:#ffffff;fill-opacity:1"
         id="path4145" />
      <path
         d="m -876.0589,349.27648 -35.46,-99.9 -1.8,0 -33.48,103.32 -27.18,-87.66 c -2.16,-7.02 2.34,-11.16 7.02,-11.16 l 1.62,0 0,-1.8 -39.96,0 0,1.8 1.44,0 c 5.4,0 12.78,3.24 15.66,10.98 l 36.36,102.96 c -7.92,21.42 -25.02,41.58 -45,37.62 l -0.36,1.8 c 26.1,5.76 45.54,-13.68 53.64,-39.06 l 28.98,-90.54 36.9,102.6 1.62,0 c 0.18,-8.46 3.96,-19.98 3.96,-19.98 l 34.56,-100.26 c 6.66,-19.08 20.88,-48.78 50.76,-50.04 l 0,-1.8 c -36.9,-1.26 -55.8,29.52 -62.46,51.84 l -26.82,89.28 z"
         style="font-style:normal;font-variant:normal;font-weight:normal;font-stretch:normal;font-family:'Cinzel Decorative';-inkscape-font-specification:'Cinzel Decorative';fill:#ffffff;fill-opacity:1"
         id="path4147" />
    </g>
  </g>
</svg>
